<svg xmlns="http://www.w3.org/2000/svg" viewBox="0 0 259.78 35.84"><defs><style>.cls-1{fill:#231815;}.cls-2{fill:#c0172d;}.cls-3{fill:#221714;}.cls-4{fill:#fff;}.cls-5{fill:none;stroke:#221714;stroke-miterlimit:10;stroke-width:0.5px;}</style></defs><title>资源 11</title><g id="图层_2" data-name="图层 2"><g id="图层_1-2" data-name="图层 1"><path class="cls-1" d="M231.25,28.05H232a1.81,1.81,0,0,1,.63.1,1.52,1.52,0,0,1,.48.28,1.27,1.27,0,0,1,.31.42,1.38,1.38,0,0,1,0,1.08,1.27,1.27,0,0,1-.31.42,1.52,1.52,0,0,1-.48.28,1.81,1.81,0,0,1-.63.1h-.75Zm.75,2.38a1.33,1.33,0,0,0,.45-.07,1,1,0,0,0,.37-.2,1,1,0,0,0,.25-.33,1,1,0,0,0,.09-.44,1,1,0,0,0-.09-.44,1,1,0,0,0-.25-.33,1,1,0,0,0-.37-.2,1.33,1.33,0,0,0-.45-.07h-.38v2.08Z"/><path class="cls-1" d="M234.49,28.05H236v.3h-1.12v.86h1.08v.3h-1.08v.92H236v.3h-1.51Z"/><path class="cls-1" d="M238.58,30a.69.69,0,0,1-.08.32.63.63,0,0,1-.2.23,1.05,1.05,0,0,1-.3.15,1.44,1.44,0,0,1-.37.05,1.72,1.72,0,0,1-.39,0,2.11,2.11,0,0,1-.38-.12l.08-.29a2,2,0,0,0,.32.11,1.47,1.47,0,0,0,.36,0,.71.71,0,0,0,.43-.11.35.35,0,0,0,.16-.32.42.42,0,0,0-.05-.2.79.79,0,0,0-.12-.15l-.19-.12-.23-.1-.26-.14a1.34,1.34,0,0,1-.23-.16A.8.8,0,0,1,237,29a.54.54,0,0,1-.06-.27.73.73,0,0,1,.06-.3.55.55,0,0,1,.18-.22.69.69,0,0,1,.27-.14,1.22,1.22,0,0,1,.34,0,1.58,1.58,0,0,1,.38,0,1.33,1.33,0,0,1,.32.12l-.07.29a1.6,1.6,0,0,0-.29-.11,1.27,1.27,0,0,0-.34,0c-.32,0-.48.12-.48.38a.32.32,0,0,0,.1.26l.14.11.22.11.28.14a1.51,1.51,0,0,1,.26.18,1.21,1.21,0,0,1,.21.24A.62.62,0,0,1,238.58,30Z"/><path class="cls-1" d="M239.92,30.73h-.37V28.05h.37Z"/><path class="cls-1" d="M242.36,28a2,2,0,0,1,.43,0,1.07,1.07,0,0,1,.37.12l-.06.29-.36-.11a1.55,1.55,0,0,0-.37,0,1.07,1.07,0,0,0-.79.29,1.15,1.15,0,0,0-.29.83,1.08,1.08,0,0,0,.27.79,1.06,1.06,0,0,0,.81.28l.26,0,.23,0v-.87h.34v1.08a2.66,2.66,0,0,1-.39.11,2.59,2.59,0,0,1-.48,0,1.55,1.55,0,0,1-.59-.1,1.15,1.15,0,0,1-.45-.28A1.12,1.12,0,0,1,241,30a1.38,1.38,0,0,1-.1-.55,1.7,1.7,0,0,1,.1-.57,1.17,1.17,0,0,1,.29-.45,1.19,1.19,0,0,1,.45-.3A1.64,1.64,0,0,1,242.36,28Z"/><path class="cls-1" d="M246.14,30.73l-1.5-2.11v2.11h-.36V28.05h.36l1.5,2.11V28.05h.36v2.68Z"/><path class="cls-1" d="M251.29,29.29a2,2,0,0,0-.1.21l-.11.22-.12.2-.12.17.34.21.36.22-.16.26c-.12-.06-.24-.14-.36-.21l-.37-.25a1.59,1.59,0,0,1-.44.33,1.09,1.09,0,0,1-.55.13.9.9,0,0,1-.57-.17.54.54,0,0,1-.21-.44.51.51,0,0,1,.05-.25.57.57,0,0,1,.13-.21,1.37,1.37,0,0,1,.17-.17l.18-.13a1.81,1.81,0,0,1-.29-.33.8.8,0,0,1-.11-.4.65.65,0,0,1,.19-.5.77.77,0,0,1,.54-.18.8.8,0,0,1,.27,0,1,1,0,0,1,.21.11.49.49,0,0,1,.14.18.46.46,0,0,1,0,.23.75.75,0,0,1,0,.26,1.09,1.09,0,0,1-.14.23l-.18.18-.2.16.35.26.41.28a2.21,2.21,0,0,0,.23-.36l.19-.41Zm-1.63,1.23a.87.87,0,0,0,.42-.1,1.62,1.62,0,0,0,.34-.26l-.43-.29-.37-.29-.15.12a.8.8,0,0,0-.13.13.38.38,0,0,0-.09.15.33.33,0,0,0,0,.17.32.32,0,0,0,.12.27A.45.45,0,0,0,249.66,30.52Zm-.34-1.84a.51.51,0,0,0,.09.3,1.1,1.1,0,0,0,.23.25l.16-.13A.67.67,0,0,0,250,29a.58.58,0,0,0,.11-.18.46.46,0,0,0,.05-.2.28.28,0,0,0-.11-.24.44.44,0,0,0-.27-.09.45.45,0,0,0-.31.11A.46.46,0,0,0,249.32,28.68Z"/><path class="cls-1" d="M251.39,30.84l0,0L251,30.6a3.34,3.34,0,0,1-.34-.23,1.66,1.66,0,0,1-.43.32,1.2,1.2,0,0,1-.57.13,1,1,0,0,1-.6-.17.62.62,0,0,1-.23-.48.6.6,0,0,1,.06-.27,1,1,0,0,1,.13-.22l.18-.17.14-.11a1.42,1.42,0,0,1-.25-.3.72.72,0,0,1-.13-.42.69.69,0,0,1,.21-.53.8.8,0,0,1,.57-.19.86.86,0,0,1,.28,0,.84.84,0,0,1,.23.12.7.7,0,0,1,.15.19.54.54,0,0,1,.06.25.67.67,0,0,1-.06.28,1.14,1.14,0,0,1-.15.23,1.19,1.19,0,0,1-.19.2l-.15.12.3.23.38.25a3.45,3.45,0,0,0,.2-.32l.2-.41v0l.34.17-.11.25-.12.22-.12.2-.09.14.31.19,0,0,.3.18,0,0ZM249.74,28a.73.73,0,0,0-.51.17.63.63,0,0,0-.18.47.7.7,0,0,0,.11.37,1.43,1.43,0,0,0,.28.32l0,0,0,0-.18.13a1.29,1.29,0,0,0-.16.17.76.76,0,0,0-.12.19.6.6,0,0,0-.05.24.5.5,0,0,0,.19.41.9.9,0,0,0,.55.16,1,1,0,0,0,.53-.13,1.66,1.66,0,0,0,.43-.32l0,0,0,0,.37.25.32.19.12-.19-.27-.16-.05,0-.35-.22,0,0,0,0a1.11,1.11,0,0,0,.12-.16l.12-.2c0-.07.07-.15.11-.22l.08-.17-.18-.1c-.08.16-.13.28-.19.38a2.77,2.77,0,0,1-.22.37l0,0,0,0-.42-.28-.34-.27,0,0,0,0,.19-.15a1.53,1.53,0,0,0,.18-.18,1.59,1.59,0,0,0,.13-.22.6.6,0,0,0,.05-.24.46.46,0,0,0-.05-.21.4.4,0,0,0-.13-.16.55.55,0,0,0-.2-.11A.93.93,0,0,0,249.74,28Zm-.08,2.52a.53.53,0,0,1-.36-.1.39.39,0,0,1-.13-.31.41.41,0,0,1,0-.19.54.54,0,0,1,.1-.16.93.93,0,0,1,.14-.14l.14-.11,0,0,0,0a4.37,4.37,0,0,0,.37.29c.15.11.29.2.42.28l0,0,0,0a1.73,1.73,0,0,1-.35.27A1,1,0,0,1,249.66,30.56Zm0-.92-.12.09a.49.49,0,0,0-.12.13.51.51,0,0,0-.09.13.42.42,0,0,0,0,.16.31.31,0,0,0,.1.24.46.46,0,0,0,.31.09.84.84,0,0,0,.39-.1,1.05,1.05,0,0,0,.3-.22l-.38-.25Zm0-.36,0,0a1.1,1.1,0,0,1-.23-.25.57.57,0,0,1-.11-.33.5.5,0,0,1,.12-.35.47.47,0,0,1,.34-.12.48.48,0,0,1,.29.09.33.33,0,0,1,.13.28.54.54,0,0,1-.05.22A.67.67,0,0,1,250,29l-.16.16-.17.12Zm.09-1a.37.37,0,0,0-.27.09.38.38,0,0,0-.1.29.47.47,0,0,0,.09.28,1.29,1.29,0,0,0,.19.21l.14-.1a1.85,1.85,0,0,0,.14-.14.59.59,0,0,0,.1-.17.37.37,0,0,0,0-.18.26.26,0,0,0-.09-.21A.38.38,0,0,0,249.73,28.3Z"/><path class="cls-1" d="M219,33.06l.38,0a1.31,1.31,0,0,1,.33.09l-.06.29-.29-.08-.31,0a1.06,1.06,0,0,0-.79.28,1.09,1.09,0,0,0-.28.81,1.05,1.05,0,0,0,.28.8,1.07,1.07,0,0,0,.79.29l.31,0,.29-.08.06.28a1.31,1.31,0,0,1-.33.09,1.69,1.69,0,0,1-.38,0,1.55,1.55,0,0,1-.59-.11,1.21,1.21,0,0,1-.44-.29,1.48,1.48,0,0,1-.27-.44,1.63,1.63,0,0,1-.09-.55,1.69,1.69,0,0,1,.09-.56,1.62,1.62,0,0,1,.27-.44,1.35,1.35,0,0,1,.44-.29A1.55,1.55,0,0,1,219,33.06Z"/><path class="cls-1" d="M221.81,35.84a1.4,1.4,0,0,1-.56-.11,1.27,1.27,0,0,1-.41-.31,1.12,1.12,0,0,1-.25-.44,1.6,1.6,0,0,1-.09-.53,1.51,1.51,0,0,1,.09-.53,1.28,1.28,0,0,1,2.44,0,1.51,1.51,0,0,1,.09.53A1.6,1.6,0,0,1,223,35a1.12,1.12,0,0,1-.25.44,1.27,1.27,0,0,1-.41.31A1.4,1.4,0,0,1,221.81,35.84Zm0-.3a1.07,1.07,0,0,0,.41-.08,1,1,0,0,0,.29-.24,1,1,0,0,0,.18-.35,1.42,1.42,0,0,0,.06-.42,1.54,1.54,0,0,0-.06-.43.92.92,0,0,0-.18-.34,1,1,0,0,0-.29-.24,1.09,1.09,0,0,0-.82,0,.85.85,0,0,0-.29.24.92.92,0,0,0-.18.34,1.54,1.54,0,0,0-.06.43,1.42,1.42,0,0,0,.06.42,1,1,0,0,0,.18.35.85.85,0,0,0,.29.24A1.07,1.07,0,0,0,221.81,35.54Z"/><path class="cls-1" d="M226,35.79l-1.51-2.11v2.11h-.35V33.11h.35l1.51,2.1v-2.1h.35v2.68Z"/><path class="cls-1" d="M229,35.09a.62.62,0,0,1-.08.31.76.76,0,0,1-.2.24,1.05,1.05,0,0,1-.3.15,1.38,1.38,0,0,1-.37.05,2.72,2.72,0,0,1-.39,0,2.11,2.11,0,0,1-.38-.12l.08-.3a1.61,1.61,0,0,0,.33.12,1.47,1.47,0,0,0,.36,0,.77.77,0,0,0,.42-.11.35.35,0,0,0,.16-.32.31.31,0,0,0,0-.2.44.44,0,0,0-.12-.15l-.19-.12-.23-.11-.26-.13a1.34,1.34,0,0,1-.23-.16.8.8,0,0,1-.15-.21.6.6,0,0,1-.06-.27.73.73,0,0,1,.06-.3.68.68,0,0,1,.18-.23.85.85,0,0,1,.27-.13,1.25,1.25,0,0,1,.35,0,1.55,1.55,0,0,1,.37,0,1.33,1.33,0,0,1,.32.12l-.07.29a1.6,1.6,0,0,0-.29-.11,1.24,1.24,0,0,0-.33,0c-.33,0-.49.12-.49.37a.61.61,0,0,0,0,.15.42.42,0,0,0,.08.12.65.65,0,0,0,.15.1l.21.12.28.14a2.46,2.46,0,0,1,.27.17,1.16,1.16,0,0,1,.2.24A.69.69,0,0,1,229,35.09Z"/><path class="cls-1" d="M231.67,33.11v.3h-.79v2.38h-.37V33.41h-.79v-.3Z"/><path class="cls-1" d="M232.94,35.79h-.37V33.11h.69a1.78,1.78,0,0,1,.41,0,1.24,1.24,0,0,1,.33.15.8.8,0,0,1,.22.23.74.74,0,0,1-.1.82,1.17,1.17,0,0,1-.5.3l.95,1.14h-.46l-.87-1.08h-.3Zm1-1.92a.37.37,0,0,0-.06-.21.34.34,0,0,0-.14-.15.83.83,0,0,0-.22-.08,1,1,0,0,0-.25,0h-.32v1h.18a1.55,1.55,0,0,0,.32,0,.63.63,0,0,0,.25-.1.49.49,0,0,0,.18-.17A.43.43,0,0,0,233.93,33.87Z"/><path class="cls-1" d="M237.1,33.11h.37v1.73a1,1,0,0,1-.07.39.83.83,0,0,1-.2.32.93.93,0,0,1-.33.21,1.31,1.31,0,0,1-.9,0,.93.93,0,0,1-.33-.21.83.83,0,0,1-.2-.32,1,1,0,0,1-.07-.39V33.11h.37v1.74a.69.69,0,0,0,.17.5.78.78,0,0,0,1,0,.74.74,0,0,0,.17-.5Z"/><path class="cls-1" d="M239.83,33.06l.38,0a1.31,1.31,0,0,1,.33.09l-.06.29-.3-.08a1.55,1.55,0,0,0-.31,0,1.05,1.05,0,0,0-.78.28,1.09,1.09,0,0,0-.28.81,1,1,0,0,0,1.06,1.09,1.55,1.55,0,0,0,.31,0l.3-.08.06.28a1.31,1.31,0,0,1-.33.09,1.69,1.69,0,0,1-.38,0,1.55,1.55,0,0,1-.59-.11,1.21,1.21,0,0,1-.44-.29,1.16,1.16,0,0,1-.27-.44,1.63,1.63,0,0,1-.1-.55,1.69,1.69,0,0,1,.1-.56,1.25,1.25,0,0,1,.27-.44,1.35,1.35,0,0,1,.44-.29A1.55,1.55,0,0,1,239.83,33.06Z"/><path class="cls-1" d="M243.24,33.11v.3h-.79v2.38h-.37V33.41h-.79v-.3Z"/><path class="cls-1" d="M244.53,35.79h-.37V33.11h.37Z"/><path class="cls-1" d="M246.85,35.84a1.4,1.4,0,0,1-.56-.11,1.17,1.17,0,0,1-.41-.31,1.28,1.28,0,0,1-.26-.44,1.89,1.89,0,0,1-.08-.53,1.78,1.78,0,0,1,.08-.53,1.43,1.43,0,0,1,.26-.45,1.15,1.15,0,0,1,.41-.3,1.25,1.25,0,0,1,.56-.11,1.27,1.27,0,0,1,.56.11,1.24,1.24,0,0,1,.41.3,1.41,1.41,0,0,1,.25.45,1.51,1.51,0,0,1,.09.53,1.6,1.6,0,0,1-.09.53,1.26,1.26,0,0,1-.66.75A1.43,1.43,0,0,1,246.85,35.84Zm0-.3a1,1,0,0,0,.4-.08.89.89,0,0,0,.3-.24,1,1,0,0,0,.18-.35,1.42,1.42,0,0,0,.06-.42,1.54,1.54,0,0,0-.06-.43.92.92,0,0,0-.18-.34.89.89,0,0,0-.3-.24.84.84,0,0,0-.4-.08.91.91,0,0,0-.41.08.76.76,0,0,0-.29.24A.92.92,0,0,0,246,34a1.54,1.54,0,0,0-.06.43,1.42,1.42,0,0,0,.06.42,1,1,0,0,0,.18.35.76.76,0,0,0,.29.24A1.07,1.07,0,0,0,246.85,35.54Z"/><path class="cls-1" d="M251,35.79l-1.5-2.11v2.11h-.35V33.11h.35l1.5,2.1v-2.1h.36v2.68Z"/><path class="cls-1" d="M170.6,14.41H149.31a.54.54,0,0,0-.42.18.6.6,0,0,0,0,.86.54.54,0,0,0,.42.18H170.6a.56.56,0,0,0,.44-.18.6.6,0,0,0,.16-.43.63.63,0,0,0-.16-.44A.6.6,0,0,0,170.6,14.41Z"/><path class="cls-1" d="M199.62,7.46a.63.63,0,0,0-.47-.2h0l-9.25-2.61a8.9,8.9,0,0,0-1.37-.25h-.12V1.44a.64.64,0,0,0-.18-.47.63.63,0,0,0-.48-.19.67.67,0,0,0-.49.19.59.59,0,0,0-.2.47V4.39h-.12a7.84,7.84,0,0,0-1.29.25l-9.37,2.61a.62.62,0,0,0-.47.2.65.65,0,0,0-.19.46.69.69,0,0,0,.19.5.58.58,0,0,0,.45.19L185.64,6a8.26,8.26,0,0,1,2.05-.32,9,9,0,0,1,2.14.33l9.34,2.61a.58.58,0,0,0,.45-.19.69.69,0,0,0,.19-.5A.65.65,0,0,0,199.62,7.46Z"/><path class="cls-1" d="M199.16,8.64h0L189.82,6a9.32,9.32,0,0,0-2.13-.32,9.06,9.06,0,0,0-2,.31l-9.43,2.63a.63.63,0,0,1-.47-.2.75.75,0,0,1-.2-.52.69.69,0,0,1,.2-.48.63.63,0,0,1,.49-.2l9.37-2.62a7.84,7.84,0,0,1,1.29-.25H187V1.44A.64.64,0,0,1,187.2,1a.73.73,0,0,1,.51-.2.67.67,0,0,1,.5.2.66.66,0,0,1,.19.49V4.37h.09a8.28,8.28,0,0,1,1.38.26l9.25,2.6h0a.63.63,0,0,1,.49.2h0a.69.69,0,0,1,.2.48.75.75,0,0,1-.2.52.63.63,0,0,1-.47.2ZM176.24,7.29a.58.58,0,0,0-.45.19.64.64,0,0,0-.18.44.68.68,0,0,0,.18.48.6.6,0,0,0,.43.19L185.63,6a9,9,0,0,1,2.06-.32,9.06,9.06,0,0,1,2.14.33h0l9.33,2.62a.63.63,0,0,0,.43-.19.68.68,0,0,0,.18-.48.64.64,0,0,0-.18-.44h0a.58.58,0,0,0-.45-.19h0l-9.26-2.61a8.92,8.92,0,0,0-1.36-.25h-.15v-3a.61.61,0,0,0-.17-.45.62.62,0,0,0-.46-.18.66.66,0,0,0-.47.18.57.57,0,0,0-.19.45v3h-.15a8.18,8.18,0,0,0-1.28.24Z"/><path class="cls-1" d="M194.88,12.06a10.6,10.6,0,0,0-3.24-2,10.75,10.75,0,0,0-3.95-.73,10.92,10.92,0,0,0-4,.73,10.2,10.2,0,0,0-3.23,2,9.69,9.69,0,0,0-2.17,3,8.67,8.67,0,0,0,0,7.23,9.48,9.48,0,0,0,2.17,3,10,10,0,0,0,3.23,2,10.72,10.72,0,0,0,4,.74,10.55,10.55,0,0,0,3.95-.74,10.36,10.36,0,0,0,3.24-2,9.36,9.36,0,0,0,2.18-3,8.67,8.67,0,0,0,0-7.23A9.56,9.56,0,0,0,194.88,12.06ZM187,26.78l-.14,0a8.83,8.83,0,0,1-3-.75,9.37,9.37,0,0,1-2.47-1.6,8.29,8.29,0,0,1-1.76-2.26,7.49,7.49,0,0,1-.82-2.76v-.14H187Zm0-8.69h-8.2V18a7.7,7.7,0,0,1,.82-2.78,8.75,8.75,0,0,1,1.76-2.29,8.89,8.89,0,0,1,2.47-1.6,9.57,9.57,0,0,1,3-.74H187Zm9.49,1.3a7.13,7.13,0,0,1-.82,2.76A8.36,8.36,0,0,1,194,24.41a9.32,9.32,0,0,1-2.49,1.6,9,9,0,0,1-3,.75l-.14,0V19.25h8.23Zm-8.21-1.3V10.53h.14a9.77,9.77,0,0,1,3,.74,8.85,8.85,0,0,1,2.49,1.6,8.5,8.5,0,0,1,1.75,2.29,7.27,7.27,0,0,1,.82,2.78l0,.14Z"/><path class="cls-1" d="M223.8,14.9a.62.62,0,0,0,.17-.44V4.88a.62.62,0,0,0-.17-.44.59.59,0,0,0-.44-.17H215.7V.57a.54.54,0,0,0-.16-.41,1,1,0,0,0-1.09,0,.49.49,0,0,0-.18.4v3.7H206a.58.58,0,0,0-.46.27,1.42,1.42,0,0,0-.14.79V24.67c0,2.79,0,2.07.15,2.17A.61.61,0,0,0,206,27h4.49a.67.67,0,0,0,.47-.16.63.63,0,0,0,0-.87.62.62,0,0,0-.46-.18h-3.88V15.07h16.75A.59.59,0,0,0,223.8,14.9Zm-1.05-1.08H206.61V10.14h13.6a.63.63,0,0,0,.47-.18.61.61,0,0,0,.17-.43.55.55,0,0,0-.17-.44.65.65,0,0,0-.47-.16h-13.6V5.48h16.14Z"/><path class="cls-1" d="M226.43,27.48a.64.64,0,0,0,0-.47.58.58,0,0,0-.34-.33A27.05,27.05,0,0,1,222.62,25a29.23,29.23,0,0,1-2.92-1.85l-.19-.15,3.08-3.36a.68.68,0,0,0,0-.89.73.73,0,0,0-.47-.15.49.49,0,0,0-.4.21l-3.16,3.46-.16-.13a30.83,30.83,0,0,1-2.58-2.32c-.73-.74-1.34-1.42-1.82-2s-1-1.24-1.45-1.95a.72.72,0,0,0-.4-.32.59.59,0,0,0-.48.07.59.59,0,0,0-.28.37.58.58,0,0,0,.09.47l.45.65.49.71A22.37,22.37,0,0,0,215,20.81a39.06,39.06,0,0,0,4.38,3.63,29.74,29.74,0,0,0,6.26,3.37h0a.21.21,0,0,1,.11.05A.58.58,0,0,0,226.43,27.48Z"/><path class="cls-1" d="M231.46,5v21h19.32V5Zm9.08,19.87h-8V15.59h8Zm0-10.39h-8V6.06h8Zm9.15,10.39h-8V15.59h5.75a.31.31,0,0,0,.26-.14.75.75,0,0,0,.12-.43.73.73,0,0,0-.12-.43.29.29,0,0,0-.26-.14H241.7V6.06h8Z"/><rect class="cls-2" x="253.77" y="4.65" width="2.74" height="2.74" rx="0.59" ry="0.59"/><rect class="cls-2" x="253.77" y="7.65" width="2.74" height="2.74" rx="0.59" ry="0.59"/><rect class="cls-2" x="256.8" y="4.65" width="2.74" height="2.74" rx="0.59" ry="0.59"/><rect class="cls-2" x="256.8" y="7.65" width="2.74" height="2.74" rx="0.59" ry="0.59"/><path class="cls-1" d="M257.32,17.54l-.52.17-.57.15-.6.13-.59.09,0-.26.35-.05V16.44a8.13,8.13,0,0,1-.81.47,8.78,8.78,0,0,1-.92.39l-.11-.26a8.48,8.48,0,0,0,1.54-.73,4.37,4.37,0,0,0,1.14-1h-2.48v-.26h2.65v-.6h.28v.6h2.59v.26h-2.56a6.47,6.47,0,0,0,.46.75,5.15,5.15,0,0,0,.53.61c.24-.16.46-.31.65-.46a4.16,4.16,0,0,0,.53-.49l.2.19a4.3,4.3,0,0,1-.55.48,7.17,7.17,0,0,1-.63.45,4.63,4.63,0,0,0,.77.5,6.19,6.19,0,0,0,1,.38l-.11.27a7.18,7.18,0,0,1-1.07-.45,4.43,4.43,0,0,1-.83-.55,4.1,4.1,0,0,1-.63-.69,6.06,6.06,0,0,1-.52-.87,5.17,5.17,0,0,1-.81.81v1.48c.28,0,.55-.12.82-.19a6.77,6.77,0,0,0,.8-.25Zm-2-4.1c-.26.17-.52.32-.77.46l-.76.41-.13-.25c.26-.12.53-.26.81-.41s.57-.33.85-.52V11.59h.28v3h-.28Zm-.56-.36-.24-.31-.2-.25-.19-.23-.21-.24.2-.16.23.25.2.22.2.25.23.3Zm1.26,1.08v-.25h1.42V12.85H255.9V12.6h1.58v-1h.28v1h1.58v.25h-1.58v1.06h1.4v.25Z"/><path class="cls-1" d="M255,18.21l-.08-.48.37-.06v-1c-.21.13-.43.25-.65.36s-.6.27-.93.4l-.1,0-.2-.46.11,0a9.81,9.81,0,0,0,1.52-.72,4.35,4.35,0,0,0,1-.8H253.6v-.48h2.65v-.61h.5v.61h2.59v.48h-2.48c.12.21.24.41.36.58a4.62,4.62,0,0,0,.46.52c.2-.13.39-.27.56-.4a4.79,4.79,0,0,0,.52-.47l.08-.09.36.35-.08.08a6.77,6.77,0,0,1-.56.49c-.16.13-.33.25-.5.37a5.44,5.44,0,0,0,.62.39,6.49,6.49,0,0,0,.95.37l.11,0-.19.48-.1,0a6.17,6.17,0,0,1-1.09-.45,4.32,4.32,0,0,1-.85-.56,3.77,3.77,0,0,1-.66-.72,7,7,0,0,1-.44-.73,6,6,0,0,1-.67.66v1.29c.22,0,.45-.1.68-.16a7.83,7.83,0,0,0,.78-.25l.11,0,.15.48-.1,0c-.17.06-.34.12-.53.17s-.38.11-.58.16l-.6.13-.59.09Zm.18-.29v0l.47-.09c.2,0,.4-.08.6-.12l.57-.15.41-.13v0c-.23.08-.46.15-.7.21s-.55.14-.82.19l-.14,0V16.18l0,0a5.43,5.43,0,0,0,.8-.79l.11-.14.08.16a5.77,5.77,0,0,0,.5.85,3.29,3.29,0,0,0,.62.67,3.51,3.51,0,0,0,.8.54,7.28,7.28,0,0,0,1,.41l0-.06a5.7,5.7,0,0,1-.86-.35,4.47,4.47,0,0,1-.79-.51l-.12-.1.13-.08c.21-.14.42-.29.62-.45a3.5,3.5,0,0,0,.46-.39l0,0a3.11,3.11,0,0,1-.46.42c-.2.15-.42.31-.66.46l-.07,0-.06-.06a4.68,4.68,0,0,1-.55-.62,6,6,0,0,1-.47-.77l-.09-.16h2.64v0h-2.59v-.6h0v.6h-2.66v0h2.6l-.14.18a4.61,4.61,0,0,1-1.17,1,8.89,8.89,0,0,1-1.45.7l0,.05a7.59,7.59,0,0,0,.81-.36,5.73,5.73,0,0,0,.8-.46l.17-.12v1.65Zm.62-3.2h-.51V13.65l-.6.35c-.25.14-.5.28-.76.41l-.1.05-.24-.45.11,0,.81-.41q.4-.23.78-.48v-1.6h.51Zm-.28-.22h.05V11.7h-.05v1.49l-.05,0c-.28.19-.56.36-.85.52l-.72.36,0,.05c.23-.11.45-.23.66-.35s.52-.3.77-.46l.17-.11Zm3.8-.23H256V13.8h1.42V13h-1.58v-.48h1.58v-1h.5v1h1.58V13h-1.58v.83h1.4Zm-3.1-.22h2.88v0h-1.41V12.74h1.58v0h-1.58v-1h-.05v1H256v0h1.58V14h-1.42Zm-1.39-.81-.07-.09.09-.07-.1.06c-.09-.11-.17-.21-.23-.3l-.2-.25-.18-.22a2.4,2.4,0,0,0-.22-.24l-.08-.09.39-.31.07.08.22.25c.07.08.14.15.2.23l.21.25c.06.09.14.19.23.3l.07.09Zm-.66-1.18.14.16.19.23.2.25a2.65,2.65,0,0,0,.17.22l0,0-.16-.21-.2-.24c-.06-.08-.13-.15-.2-.23l-.15-.17Z"/><path class="cls-1" d="M255,22c.06-.15.15-.33.25-.55a5.63,5.63,0,0,0,.28-.85h-1.24c-.1.28-.21.55-.32.81s-.26.52-.41.78l-.24-.13a6.58,6.58,0,0,0,.62-1.32c.16-.45.31-.94.44-1.46l.27,0c0,.17-.08.34-.13.51s-.09.33-.14.49h1.42v.25a5.56,5.56,0,0,1-.29.92c-.12.27-.2.46-.26.58Zm.75,2.35c-.26.2-.54.41-.86.61s-.63.38-.93.55l-.15-.26.5-.27V21.7h.28v3.11l.52-.34.47-.35Zm1.37-5c-.12.33-.24.65-.37.94h3v.27h-3.08c-.11.2-.22.4-.34.59a5.58,5.58,0,0,1-.39.56l-.24-.15a6.33,6.33,0,0,0,.7-1.1,7.39,7.39,0,0,0,.48-1.19ZM256.2,22h1.4v-1h.27v1h1.45v2.2a.66.66,0,0,1-.17.57.9.9,0,0,1-.55.15h-.33l0-.27h.36a.61.61,0,0,0,.36-.08.49.49,0,0,0,.11-.38V22.23h-1.18V25.9h-.27V22.23h-1.12v2.84h-.28Z"/><path class="cls-1" d="M258,26h-.5V22.34h-.89v2.84h-.5V21.85h1.39v-1h.5v1h1.46v2.31a.79.79,0,0,1-.22.66,1,1,0,0,1-.62.17h-.43l-.08-.49h.49a.46.46,0,0,0,.29-.06s.07-.06.07-.29V22.34h-1Zm-.27-.23h.05V22.11h1.4v2a.55.55,0,0,1-.15.46.73.73,0,0,1-.43.12h-.22v0h.24a.83.83,0,0,0,.48-.13c.09-.07.13-.23.13-.47v-2.1h-1.45v-1h-.05v1h-1.39V25h.05V22.11h1.34Zm-3.84-.13-.25-.46.54-.29V21.59h.5v3l.34-.24c.17-.11.32-.23.47-.34l.09-.07.3.41-.08.07c-.26.21-.55.41-.87.62s-.63.38-.94.55Zm.06-.37,0,.06c.27-.14.55-.31.83-.48s.53-.36.76-.54l0,0-.39.28-.52.35-.18.11v-3.2h-.05V25Zm-.37-2.95-.43-.24.06-.1a7.66,7.66,0,0,0,.61-1.3c.15-.44.3-.93.43-1.44l0-.11.5.09,0,.11c0,.18-.08.35-.13.52s-.06.23-.1.35h1.38v.36a4.32,4.32,0,0,1-.22.76,6.23,6.23,0,0,0,.57-.92,8.65,8.65,0,0,0,.47-1.17l0-.1.49.13,0,.11c-.09.28-.19.54-.3.8h2.9v.49h-3.12c-.1.18-.2.36-.31.54a4.49,4.49,0,0,1-.4.57l-.06.08-.36-.23-.22.49,0,.1-.47-.17.31-.66a4.26,4.26,0,0,0,.23-.69h-1c-.09.26-.2.51-.3.75a8.46,8.46,0,0,1-.41.79Zm-.12-.33,0,0a6.16,6.16,0,0,0,.34-.68,8.33,8.33,0,0,0,.32-.8l0-.08h1.46l0,.14a4.76,4.76,0,0,1-.29.88l-.2.43h0l.21-.48a5.61,5.61,0,0,0,.29-.9v-.12h-1.46l0-.14c.05-.16.1-.33.14-.49s.07-.26.11-.39h-.06a14,14,0,0,1-.41,1.37A7.58,7.58,0,0,1,253.44,22Zm2.35-.47,0,0a5,5,0,0,0,.33-.47,5.57,5.57,0,0,0,.32-.58l0-.07h3v0h-3l.07-.16a8.55,8.55,0,0,0,.33-.81l-.06,0a6.34,6.34,0,0,1-.45,1.1A7,7,0,0,1,255.79,21.54Z"/><path class="cls-3" d="M15.39,30.29a1.14,1.14,0,0,0-.26-.82,1.1,1.1,0,0,0-.78-.26,3.89,3.89,0,0,0-.62.05l-.5.11a1.15,1.15,0,0,1-.07-.22,1.24,1.24,0,0,1,0-.27,4.63,4.63,0,0,1,.54-.11,4.89,4.89,0,0,1,.66-.05,1.76,1.76,0,0,1,1.22.36,1.48,1.48,0,0,1,.4,1.13v2.85l-.72.12a5.7,5.7,0,0,1-.8.06,2.13,2.13,0,0,1-1.24-.32,1.13,1.13,0,0,1-.45-1,1.29,1.29,0,0,1,.13-.6,1.13,1.13,0,0,1,.36-.45,1.73,1.73,0,0,1,.56-.28,2.65,2.65,0,0,1,.71-.09l.53,0,.36,0Zm0,.75L15,31l-.41,0a1.71,1.71,0,0,0-1,.24.76.76,0,0,0-.35.67.83.83,0,0,0,.11.45.75.75,0,0,0,.27.26,1.23,1.23,0,0,0,.37.12l.41,0a3.68,3.68,0,0,0,.49,0,3.5,3.5,0,0,0,.45-.07Z"/><path class="cls-3" d="M18.39,29.3h-.74s0-.07,0-.11v-.26s0-.08,0-.11h.74V28l.52-.51h0v1.32h1.16s0,.07,0,.11v.26s0,.08,0,.11H19v2.8a1,1,0,0,0,.05.34.72.72,0,0,0,.14.19.78.78,0,0,0,.21.09l.23,0a1.62,1.62,0,0,0,.52-.08,3.55,3.55,0,0,1,.08.47,2.17,2.17,0,0,1-.71.1,1.17,1.17,0,0,1-.78-.26,1,1,0,0,1-.3-.84Z"/><path class="cls-3" d="M22.1,29.3h-.74s0-.07,0-.11v-.26s0-.08,0-.11h.74V28l.52-.51h0v1.32h1.16s0,.07,0,.11v.26s0,.08,0,.11H22.66v2.8a.79.79,0,0,0,.05.34.72.72,0,0,0,.14.19.67.67,0,0,0,.21.09l.23,0a1.62,1.62,0,0,0,.52-.08c0,.15.06.31.08.47a2.17,2.17,0,0,1-.71.1A1.17,1.17,0,0,1,22.4,33a1,1,0,0,1-.3-.84Z"/><path class="cls-3" d="M25.88,29.3h-.54a.3.3,0,0,1,0-.1v-.26a.37.37,0,0,1,0-.12h1.09v4.31l-.14,0H26l-.14,0Zm-.28-1.53c0-.05,0-.11,0-.19v-.35c0-.07,0-.13,0-.17h.71s0,.1,0,.17v.35c0,.08,0,.14,0,.19H25.6Z"/><path class="cls-3" d="M29,29.3h-.73s0-.07,0-.11v-.26s0-.08,0-.11H29V28l.52-.51h0v1.32h1.16s0,.07,0,.11v.26s0,.08,0,.11H29.52v2.8a1,1,0,0,0,.05.34.58.58,0,0,0,.15.19.61.61,0,0,0,.2.09l.23,0a1.62,1.62,0,0,0,.52-.08,3.55,3.55,0,0,1,.08.47,2.17,2.17,0,0,1-.71.1,1.17,1.17,0,0,1-.78-.26,1,1,0,0,1-.3-.84Z"/><path class="cls-3" d="M32.44,28.82H33v2.43a2.6,2.6,0,0,0,.09.75,1,1,0,0,0,.28.45.89.89,0,0,0,.44.23,2.65,2.65,0,0,0,.59.07,3.73,3.73,0,0,0,.5,0,3,3,0,0,0,.39-.08V28.82h.56V33a5.68,5.68,0,0,1-.7.15,4.15,4.15,0,0,1-.79.07,3.59,3.59,0,0,1-.75-.08,1.5,1.5,0,0,1-.61-.29,1.59,1.59,0,0,1-.41-.6,2.69,2.69,0,0,1-.15-1Z"/><path class="cls-3" d="M41.08,26.92h.56V33a4.2,4.2,0,0,1-.65.15,5.46,5.46,0,0,1-.82.06,3.45,3.45,0,0,1-.87-.11,1.88,1.88,0,0,1-.7-.37,1.8,1.8,0,0,1-.47-.66,2.81,2.81,0,0,1-.17-1,3,3,0,0,1,.15-1,2.15,2.15,0,0,1,.43-.74,1.9,1.9,0,0,1,.68-.46,2.35,2.35,0,0,1,.86-.16,3.31,3.31,0,0,1,.55.05,2.46,2.46,0,0,1,.45.11Zm0,2.48a1.87,1.87,0,0,0-.43-.12,2.48,2.48,0,0,0-.54-.06,1.6,1.6,0,0,0-.69.14,1.3,1.3,0,0,0-.49.37,1.67,1.67,0,0,0-.29.58,3,3,0,0,0-.1.75A1.72,1.72,0,0,0,39,32.34a1.69,1.69,0,0,0,1.19.4,4.58,4.58,0,0,0,.53,0l.4-.07Z"/><path class="cls-3" d="M44.32,31.07a1.72,1.72,0,0,0,.4,1.26,1.6,1.6,0,0,0,1.19.41,2.84,2.84,0,0,0,.6-.06,3.18,3.18,0,0,0,.53-.14,1,1,0,0,1,.07.22c0,.09,0,.18,0,.25a2.84,2.84,0,0,1-.58.17,4,4,0,0,1-.72.06,2.53,2.53,0,0,1-1-.17,1.83,1.83,0,0,1-.66-.46,1.88,1.88,0,0,1-.37-.7,2.92,2.92,0,0,1-.13-.9,3.14,3.14,0,0,1,.12-.89,2.14,2.14,0,0,1,.34-.73,1.69,1.69,0,0,1,.6-.49,1.93,1.93,0,0,1,.87-.18,1.79,1.79,0,0,1,.75.15,1.48,1.48,0,0,1,.55.4,1.62,1.62,0,0,1,.34.62,2.45,2.45,0,0,1,.12.78,1.42,1.42,0,0,1,0,.19,1.34,1.34,0,0,1,0,.21Zm2.54-.47a1.86,1.86,0,0,0-.07-.52,1.19,1.19,0,0,0-.21-.44,1.25,1.25,0,0,0-.37-.31,1.33,1.33,0,0,0-1.47.25,1.7,1.7,0,0,0-.4,1Z"/><path class="cls-3" d="M52.55,27.06l.3,0,.36,0,.39,0H54a4.09,4.09,0,0,1,1.38.21,2.61,2.61,0,0,1,1,.62,2.4,2.4,0,0,1,.57,1,4.34,4.34,0,0,1,.19,1.3q0,3.16-3.11,3.16h-.38l-.4,0-.35,0-.28,0Zm.59,5.57.36,0,.42,0a3.77,3.77,0,0,0,1-.13,1.73,1.73,0,0,0,.8-.43,1.94,1.94,0,0,0,.51-.81,3.71,3.71,0,0,0,.18-1.25,2.5,2.5,0,0,0-.67-1.92,2.67,2.67,0,0,0-1.87-.62H53.5a2.8,2.8,0,0,0-.36,0Z"/><path class="cls-3" d="M59.55,31.07a1.72,1.72,0,0,0,.4,1.26,1.59,1.59,0,0,0,1.19.41,2.91,2.91,0,0,0,.6-.06,3.18,3.18,0,0,0,.53-.14,1,1,0,0,1,.07.22,1.21,1.21,0,0,1,0,.25,2.57,2.57,0,0,1-.57.17,4,4,0,0,1-.72.06,2.53,2.53,0,0,1-1-.17,1.67,1.67,0,0,1-.66-.46,1.9,1.9,0,0,1-.38-.7A3.26,3.26,0,0,1,59,31a3.56,3.56,0,0,1,.11-.89,2.15,2.15,0,0,1,.35-.73A1.57,1.57,0,0,1,60,28.9a2,2,0,0,1,.88-.18,1.79,1.79,0,0,1,.75.15,1.48,1.48,0,0,1,.55.4,1.77,1.77,0,0,1,.34.62,2.45,2.45,0,0,1,.11.78v.19c0,.08,0,.15,0,.21Zm2.54-.47a2.32,2.32,0,0,0-.07-.52,1.63,1.63,0,0,0-.21-.44,1.25,1.25,0,0,0-.37-.31,1.2,1.2,0,0,0-.55-.12,1.18,1.18,0,0,0-.92.37,1.64,1.64,0,0,0-.4,1Z"/><path class="cls-3" d="M64.59,32.54a2.29,2.29,0,0,0,.49.13,2.74,2.74,0,0,0,.56.06,1.39,1.39,0,0,0,.81-.22.72.72,0,0,0,.2-.93.71.71,0,0,0-.24-.25,1,1,0,0,0-.33-.17L65.7,31a3.52,3.52,0,0,1-.42-.15,1.45,1.45,0,0,1-.36-.22.86.86,0,0,1-.26-.31,1,1,0,0,1-.1-.47,1,1,0,0,1,.38-.83,1.71,1.71,0,0,1,1.16-.33,3.39,3.39,0,0,1,.64.06,3.25,3.25,0,0,1,.47.13,2.77,2.77,0,0,1-.11.48l-.46-.12a2.62,2.62,0,0,0-.57-.06,1.16,1.16,0,0,0-.73.19.59.59,0,0,0-.21.47.51.51,0,0,0,.07.28.69.69,0,0,0,.19.19,1.47,1.47,0,0,0,.28.14l.34.11.46.17a1.72,1.72,0,0,1,.42.23,1.08,1.08,0,0,1,.31.36,1.15,1.15,0,0,1,.13.55,1.24,1.24,0,0,1-.13.55,1.18,1.18,0,0,1-.34.43,1.69,1.69,0,0,1-.52.26,2.09,2.09,0,0,1-.67.1,5.08,5.08,0,0,1-.72-.05,2.39,2.39,0,0,1-.52-.14A3.33,3.33,0,0,1,64.59,32.54Z"/><path class="cls-3" d="M69.64,29.3H69.1a.31.31,0,0,1,0-.1.53.53,0,0,1,0-.13.57.57,0,0,1,0-.13.41.41,0,0,1,0-.12h1.1v4.31l-.14,0h-.28l-.14,0Zm-.28-1.53c0-.05,0-.11,0-.19v-.35c0-.07,0-.13,0-.17h.71a.81.81,0,0,1,0,.17,1,1,0,0,1,0,.17,1.21,1.21,0,0,1,0,.18,1,1,0,0,1,0,.19h-.71Z"/><path class="cls-3" d="M74.75,32.71a1.61,1.61,0,0,1,1.06.3,1,1,0,0,1,.32.78,1.1,1.1,0,0,1-.17.59,1.48,1.48,0,0,1-.47.46,2.58,2.58,0,0,1-.72.29,3.78,3.78,0,0,1-.91.11,3.73,3.73,0,0,1-.7-.06,1.7,1.7,0,0,1-.55-.19,1,1,0,0,1-.36-.35,1.07,1.07,0,0,1-.12-.53,1.16,1.16,0,0,1,.18-.61,1.13,1.13,0,0,1,.48-.44.84.84,0,0,1-.27-.26.66.66,0,0,1-.11-.38.88.88,0,0,1,.16-.55,1.47,1.47,0,0,1,.42-.4,1.36,1.36,0,0,1-.48-.5,1.56,1.56,0,0,1-.17-.74,1.63,1.63,0,0,1,.1-.59,1.39,1.39,0,0,1,.32-.48,1.58,1.58,0,0,1,.52-.32,1.92,1.92,0,0,1,.71-.12,2,2,0,0,1,.62.09,1.6,1.6,0,0,1,.47.24l.21-.08.28-.07.31,0,.32,0a1.27,1.27,0,0,1,0,.28,1.23,1.23,0,0,1,0,.29h-.8a3.39,3.39,0,0,1,.18.39,1.63,1.63,0,0,1,.06.45,1.47,1.47,0,0,1-.13.64,1.26,1.26,0,0,1-.35.47,1.55,1.55,0,0,1-.52.29,2,2,0,0,1-.65.1,2,2,0,0,1-.63-.09,1.09,1.09,0,0,0-.33.29.51.51,0,0,0-.1.32.88.88,0,0,0,0,.16.29.29,0,0,0,.11.14.76.76,0,0,0,.22.1,1.82,1.82,0,0,0,.37,0Zm-1.2.5a.88.88,0,0,0-.63.22.84.84,0,0,0-.25.62.55.55,0,0,0,.1.34.61.61,0,0,0,.26.21,1.23,1.23,0,0,0,.38.1,3.44,3.44,0,0,0,.46,0,2.45,2.45,0,0,0,1.23-.26.77.77,0,0,0,.44-.64.49.49,0,0,0-.22-.46,1.45,1.45,0,0,0-.72-.14Zm-.62-3a1.06,1.06,0,0,0,.26.74,1.23,1.23,0,0,0,1.61,0,1.15,1.15,0,0,0,0-1.48,1.23,1.23,0,0,0-1.61,0A1.06,1.06,0,0,0,72.93,30.23Z"/><path class="cls-3" d="M77.91,28.82h.5c0,.11,0,.23,0,.39v.39a1.9,1.9,0,0,1,.23-.31A2.12,2.12,0,0,1,79,29a1.63,1.63,0,0,1,.42-.2,1.46,1.46,0,0,1,.52-.09,1.27,1.27,0,0,1,1.08.45,2,2,0,0,1,.34,1.24v2.72l-.14,0h-.28l-.14,0V30.58a1.82,1.82,0,0,0-.23-1,.76.76,0,0,0-.67-.31,1.31,1.31,0,0,0-1,.46,1.7,1.7,0,0,0-.3.55,2.49,2.49,0,0,0-.11.76v2.12l-.14,0h-.27l-.14,0Z"/><path class="cls-3" d="M0,18.51a2,2,0,0,0,2,2H15.62v-.78H2.1A1.25,1.25,0,0,1,.78,18.41v-.88L1.31,12H14.67V3.22H.71V4H13.87v7.18H.6L0,17.55Z"/><path class="cls-3" d="M35.4,20.61h5.4v-.88H34.74V14.59h3.87V2.94h-12V14.59h3.61l-.19.66c-.67,2.32-2.61,3.89-5.61,4.53l.44.8c3.34-.83,5.48-2.8,6.06-5.58l.08-.41h2.85v4.2C33.86,20.4,34.68,20.61,35.4,20.61ZM27.51,3.76H37.79V6.57H27.51Zm0,3.62H37.79v2.81H27.51Zm0,6.35V11H37.79v2.72Z"/><polygon class="cls-3" points="48.52 4.7 54.83 4.7 54.83 3.93 52.11 3.93 52.11 2.42 51.33 2.42 51.33 3.93 48.52 3.93 48.52 4.7"/><path class="cls-3" d="M48.82,14.8v5.71h5.81V14.8Zm5,4.93H49.59V15.58h4.26Z"/><path class="cls-3" d="M66.12,9.34h.59V8.56H65.6V3.22H57.17V9H58V4h6.87V8A1.19,1.19,0,0,0,66.12,9.34Z"/><rect class="cls-3" x="48.92" y="11.18" width="5.61" height="0.78"/><rect class="cls-3" x="48.92" y="7.55" width="5.61" height="0.78"/><path class="cls-3" d="M61.59,18.4l.29-.19.28.2a17.92,17.92,0,0,0,4.09,2l.23-.73a17.18,17.18,0,0,1-3.35-1.55l-.59-.37.51-.46a11.94,11.94,0,0,0,3.5-6.14H57.17V12h.57l.11.37a11.18,11.18,0,0,0,2.91,4.93l.5.48-.6.34a17,17,0,0,1-4.49,1.69l.17.74A17.5,17.5,0,0,0,61.59,18.4Zm-2.84-5.75-.26-.7h7l-.27.7a10.09,10.09,0,0,1-3,4.3l-.07.06-.84.84v-1A10.91,10.91,0,0,1,58.75,12.65Z"/><rect class="cls-3" x="74.28" y="7.55" width="4.8" height="0.78"/><path class="cls-3" d="M74,14.8v5.71h5.41V14.8Zm4.63,4.93H74.76V15.58h3.85Z"/><polygon class="cls-3" points="91.67 8.18 87.04 8.18 87.04 2.54 86.26 2.54 86.26 8.18 81.53 8.18 81.53 8.95 86.26 8.95 86.26 20.51 87.04 20.51 87.04 8.95 91.67 8.95 91.67 8.18"/><polygon class="cls-3" points="73.58 4.7 79.79 4.7 79.79 3.93 77.07 3.93 77.07 2.52 76.3 2.52 76.3 3.93 73.58 3.93 73.58 4.7"/><rect class="cls-3" x="74.28" y="11.18" width="4.8" height="0.78"/><path class="cls-3" d="M101.38,5.33a2.91,2.91,0,1,1-2.91-2.91A2.91,2.91,0,0,1,101.38,5.33Z"/><path class="cls-4" d="M97.57,3.38h.2l.16,0h.38a2,2,0,0,1,.49.05,1.14,1.14,0,0,1,.44.18,1,1,0,0,1,.31.34,1.28,1.28,0,0,1,.11.55.94.94,0,0,1-.07.37,1.17,1.17,0,0,1-.19.3,1.44,1.44,0,0,1-.27.22,1.37,1.37,0,0,1-.32.16l0,0L100,7.14h-.41L98.24,5.41v0l.12,0a2.37,2.37,0,0,0,.34-.13A1.19,1.19,0,0,0,99,5.05a.72.72,0,0,0,.21-.25.74.74,0,0,0,.08-.34A.75.75,0,0,0,99,3.85a1,1,0,0,0-.68-.21h-.2l-.23,0V7.14h-.35Z"/><line class="cls-5" x1="129.71" y1="11.11" x2="117.5" y2="23.31"/><line class="cls-5" x1="117.5" y1="11.11" x2="129.71" y2="23.31"/></g></g></svg>