<?xml version="1.0" standalone="no"?><!DOCTYPE svg PUBLIC "-//W3C//DTD SVG 1.1//EN" "http://www.w3.org/Graphics/SVG/1.1/DTD/svg11.dtd"><svg t="1650697890350" class="icon" viewBox="0 0 1024 1024" version="1.1" xmlns="http://www.w3.org/2000/svg" p-id="6399" xmlns:xlink="http://www.w3.org/1999/xlink" width="128" height="128"><defs><style type="text/css">@font-face { font-family: feedback-iconfont; src: url("//at.alicdn.com/t/font_1031158_u69w8yhxdu.woff2?t=1630033759944") format("woff2"), url("//at.alicdn.com/t/font_1031158_u69w8yhxdu.woff?t=1630033759944") format("woff"), url("//at.alicdn.com/t/font_1031158_u69w8yhxdu.ttf?t=1630033759944") format("truetype"); }
</style></defs><path d="M508.076226 445.171732L34.492933 738.347343l473.583293 285.652657 481.0967-285.652657L508.076226 445.171732z m0 0" fill="#FF7B7B" p-id="6400"></path><path d="M508.076226 234.691329L34.492933 520.343987l473.583293 285.662204 481.0967-285.662204-481.0967-285.652658z m0 0" fill="#69B4FF" p-id="6401"></path><path d="M508.018945 822.694164L6.768749 520.343987l501.259743-302.340631 509.212306 302.340631-509.221853 302.350177zM62.217117 520.343987l445.91639 268.97423 453.000187-268.97423-453.000187-268.964684L62.217117 520.343987z" fill="#FFFFFF" p-id="6402"></path><path d="M508.076226 16.687973L34.492933 302.34063l473.583293 285.662204 481.0967-285.662204L508.076226 16.687973z m0 0" fill="#FFC522" p-id="6403"></path><path d="M508.018945 604.690807L6.768749 302.34063 508.018945 0l509.212306 302.34063-509.212306 302.350177zM62.217117 302.34063l445.91639 268.974231 453.000187-268.974231-453.000187-268.964684L62.217117 302.34063z" fill="#FFFFFF" p-id="6404"></path></svg>